<svg width="350" height="350" viewBox="0 0 350 350" fill="none" xmlns="http://www.w3.org/2000/svg">
<path d="M130.196 224.758C128.132 219.402 127 213.583 127 207.5C127 201.884 129.808 191.953 135.418 178.764C140.81 166.087 148.086 151.97 155.488 138.654C159.815 130.871 164.148 123.428 168.112 116.793C168.426 118.01 168.74 119.19 169.051 120.327C170.413 125.305 171.773 129.668 172.844 132.928C172.063 133.996 171.293 135.057 170.536 136.111L160.996 134.439L167.352 140.6C153.722 160.083 144.275 177.141 138.307 191.978C133.462 204.026 130.768 214.969 130.196 224.758Z" stroke="url(#paint0_linear_3_27)" stroke-opacity="0.2" stroke-width="24"/>
<defs>
<linearGradient id="paint0_linear_3_27" x1="175" y1="83" x2="175" y2="267.5" gradientUnits="userSpaceOnUse">
<stop offset="0.21" stop-color="white"/>
</linearGradient>
</defs>
</svg>
